<?xml version="1.0" encoding="UTF-8" standalone="no"?>
<svg
   width="100%"
   height="100%"
   viewBox="0 0 96 96"
   version="1.1"
   xml:space="preserve"
   style="fill-rule:evenodd;clip-rule:evenodd;stroke-linejoin:round;stroke-miterlimit:2;"
   id="svg7"
   sodipodi:docname="icon.svg"
   inkscape:version="1.3.2 (091e20e, 2023-11-25)"
   xmlns:inkscape="http://www.inkscape.org/namespaces/inkscape"
   xmlns:sodipodi="http://sodipodi.sourceforge.net/DTD/sodipodi-0.dtd"
   xmlns="http://www.w3.org/2000/svg"
   xmlns:svg="http://www.w3.org/2000/svg"><defs
   id="defs7" /><sodipodi:namedview
   id="namedview7"
   pagecolor="#ffffff"
   bordercolor="#000000"
   borderopacity="0.25"
   inkscape:showpageshadow="true"
   inkscape:pageopacity="0.0"
   inkscape:pagecheckerboard="true"
   inkscape:deskcolor="#d1d1d1"
   inkscape:zoom="3.77"
   inkscape:cx="45.490716"
   inkscape:cy="69.230769"
   inkscape:window-width="3440"
   inkscape:window-height="1387"
   inkscape:window-x="0"
   inkscape:window-y="25"
   inkscape:window-maximized="1"
   inkscape:current-layer="layer2"
   showborder="true"
   borderlayer="true"
   labelstyle="default"
   inkscape:clip-to-page="false" />
    
    <g
   inkscape:groupmode="layer"
   id="layer2"
   inkscape:label="Layer 2"
   style="clip-rule:evenodd;fill-rule:evenodd;stroke-linejoin:round;stroke-miterlimit:2"
   transform="translate(1.343904,1.2679608)"><path
     id="path10"
     style="fill:#ffffff;fill-rule:nonzero;stroke-width:0.96"
     d="m 58.989109,2.0393979 c -3.394848,0.1230498 -6.727266,1.1378502 -9.67875,2.96625 a 3.8208206,3.8208206 0 0 0 -0.0019,0 c -4.240893,2.6287895 -7.457237,6.7223051 -9.159375,11.5312501 -0.898428,2.537933 -1.30208,5.250532 -1.47,8.019374 -3.709625,1.723153 -6.806777,4.501049 -8.70375,8.111251 -0.781552,1.486965 -0.761394,1.417201 -1.65,1.788749 -0.887233,0.371202 -0.943062,0.412365 -2.675625,-0.05625 h -0.0019 c -5.041984,-1.365673 -10.38898,-0.67982 -14.908035,1.912497 -4.6843918,2.686689 -8.0563262,7.193502 -9.2606246,12.429375 -1.14353989,4.968938 -0.1430561,10.148341 2.694375,14.525625 a 3.8208206,3.8208206 0 0 0 0,0.0019 c 2.6597701,4.102138 6.7079266,7.274856 11.4412506,9.1125 0.23386,0.09114 0.45522,0.173028 0.663749,0.2475 a 3.8208206,3.8208206 0 0 0 0.0019,0 c 7.164825,2.553691 15.383504,2.293613 23.606251,-0.195 4.365047,3.329197 9.764657,5.39625 15.650624,5.39625 4.979601,0 9.625439,-1.469034 13.59,-3.9225 l 13.59933,13.59933 c 2.205648,2.204968 6.217951,2.205481 8.426251,0.0037 2.215919,-2.208378 2.215919,-6.236622 0,-8.445 L 78.339109,66.248773 c 4.490523,-1.304544 8.48973,-4.011984 11.00625,-8.122501 a 3.8208206,3.8208206 0 0 0 0,-0.0019 c 0.6204,-1.013901 0.734901,-2.160294 0.575626,-3.260579 0.871998,-0.690594 1.577099,-1.604886 1.822499,-2.773125 1.811465,-8.589166 -2.415118,-17.393382 -10.245,-21.42375 a 3.8208206,3.8208206 0 0 0 -0.0019,0 C 79.899531,29.84493 79.890725,29.780729 79.484689,28.906272 79.078481,28.030906 79.046202,28.097107 79.471566,26.472523 80.77489,21.496416 79.89882,16.20173 77.127816,11.761273 a 3.8208206,3.8208206 0 0 0 -0.0019,0 C 74.254775,7.1623536 69.628457,3.8573499 64.323484,2.5793979 63.043279,2.2709651 61.744997,2.0910821 60.445985,2.0412729 59.963771,2.0227831 59.477818,2.021684 58.989109,2.0393979 Z m 28.603125,49.1456251 0.170626,0.106875 c -0.10557,-0.07047 -0.07448,-0.04202 -0.144376,-0.0825 -0.01044,-0.0063 -0.01574,-0.01814 -0.02625,-0.02437 z m -2.88375,6.585 a 3.8208206,3.8208206 0 0 0 0.885,0.264375 c -0.16711,0.04123 -0.331601,0.06356 -0.46125,0.07125 -0.155779,0.0093 -0.305037,0.0046 -0.463125,-0.01501 z" /></g><g
   id="g7"
   style="display:inline"
   transform="matrix(0.96,0,0,0.96,3.2205134,3.0917337)">
        
        
        
        
        
        
        <g
   id="g10"><path
     d="M 87.182,50.976 C 88.466,44.892 85.494,38.651 79.954,35.799 77.353,34.46 75.883,33.032 74.879,30.87 73.875,28.707 73.757,26.713 74.471,23.988 75.375,20.536 74.784,16.89 72.807,13.722 70.754,10.433 67.382,8.018 63.557,7.095 56.191,5.32 48.835,9.706 46.067,17.526 c -0.905,2.557 -1.352,5.35 -1.352,8.299 2.968,-0.42 6.043,-0.072 8.901,1.037 0.74,0.287 1.469,0.627 2.166,1.011 3.897,2.146 6.716,5.701 7.937,10.011 1.157,4.08 0.842,8.579 -0.887,12.67 -0.842,1.994 -1.97,3.906 -3.353,5.714 1.997,1.588 4.12,2.866 6.334,3.795 7.709,3.233 15.982,1.21 19.673,-4.819 0.352,-0.575 1.114,-0.759 1.723,-0.429 0.381,-0.764 0.691,-1.548 0.931,-2.346 -0.67,-0.177 -1.097,-0.834 -0.958,-1.493 z M 70.376,17.146 c -0.344,0.176 -0.738,0.183 -1.08,0.051 -0.279,-0.109 -0.523,-0.309 -0.678,-0.586 -1.081,-1.923 -2.832,-3.431 -4.931,-4.245 -0.67,-0.259 -1.01,-0.992 -0.76,-1.636 0.25,-0.644 0.995,-0.956 1.664,-0.696 2.677,1.038 4.91,2.962 6.289,5.416 0.346,0.616 0.12,1.375 -0.504,1.696 z m 8.986,22.571 c -0.299,0.57 -0.995,0.809 -1.605,0.572 -0.044,-0.017 -0.088,-0.037 -0.131,-0.059 -3.655,-1.881 -5.953,-4.161 -7.453,-7.391 -1.499,-3.23 -1.72,-6.379 -0.717,-10.209 0.175,-0.668 0.878,-1.058 1.57,-0.871 0.692,0.187 1.112,0.882 0.937,1.55 -0.849,3.242 -0.675,5.878 0.563,8.545 1.239,2.668 3.17,4.568 6.264,6.161 0.638,0.328 0.894,1.09 0.572,1.702 z"
     style="fill:#ab7be1;fill-rule:nonzero"
     id="path1" /><path
     d="m 78.79,38.014 c -3.094,-1.592 -5.025,-3.492 -6.264,-6.16 -1.238,-2.668 -1.412,-5.303 -0.563,-8.545 0.175,-0.669 -0.245,-1.363 -0.936,-1.55 -0.693,-0.188 -1.396,0.202 -1.571,0.871 -1.003,3.83 -0.782,6.979 0.717,10.208 1.5,3.231 3.798,5.51 7.453,7.392 0.043,0.022 0.087,0.042 0.131,0.059 0.61,0.236 1.306,-0.002 1.606,-0.573 0.321,-0.611 0.065,-1.373 -0.573,-1.702 z"
     style="fill:#ffffff;fill-rule:nonzero"
     id="path2" /><path
     d="m 70.88,15.45 c -1.379,-2.454 -3.612,-4.378 -6.289,-5.416 -0.669,-0.26 -1.414,0.052 -1.664,0.696 -0.25,0.644 0.09,1.377 0.76,1.636 2.099,0.814 3.85,2.322 4.931,4.245 0.155,0.277 0.399,0.477 0.678,0.586 0.342,0.132 0.735,0.125 1.08,-0.051 0.624,-0.321 0.85,-1.08 0.504,-1.696 z"
     style="fill:#ffffff;fill-rule:nonzero"
     id="path3" /><path
     d="m 87.255,54.84 c -0.015,-0.01 -0.031,-0.017 -0.047,-0.025 -0.608,-0.33 -1.37,-0.146 -1.722,0.429 -3.691,6.029 -11.964,8.053 -19.673,4.819 -2.214,-0.93 -4.337,-2.208 -6.335,-3.795 1.384,-1.808 2.512,-3.72 3.354,-5.714 1.728,-4.09 2.043,-8.59 0.887,-12.67 -1.221,-4.31 -4.04,-7.865 -7.937,-10.011 -0.697,-0.384 -1.426,-0.724 -2.166,-1.011 -2.859,-1.109 -5.933,-1.457 -8.901,-1.037 0,-2.949 0.447,-5.742 1.352,-8.299 2.768,-7.82 10.123,-12.206 17.49,-10.431 3.825,0.923 7.197,3.338 9.249,6.627 1.978,3.168 2.569,6.814 1.665,10.266 -0.714,2.725 -0.596,4.719 0.408,6.882 1.004,2.162 2.474,3.59 5.074,4.929 5.54,2.852 8.513,9.093 7.229,15.177 -0.139,0.659 0.288,1.316 0.957,1.493 0.018,0.005 0.034,0.011 0.052,0.015 0.7,0.156 1.383,-0.266 1.525,-0.942 C 91.233,44.356 87.697,36.971 81.117,33.584 79.04,32.515 77.987,31.512 77.232,29.886 76.477,28.259 76.408,26.844 76.978,24.667 78.055,20.555 77.356,16.22 75.009,12.459 72.591,8.586 68.622,5.741 64.118,4.656 59.793,3.614 55.314,4.339 51.506,6.698 c -3.604,2.234 -6.405,5.769 -7.887,9.956 -1.062,3 -1.551,6.284 -1.481,9.742 -0.135,0.041 -0.271,0.08 -0.405,0.124 -3.917,1.294 -7.093,3.944 -8.941,7.461 -1.047,1.992 -2.051,2.991 -3.706,3.683 -1.654,0.692 -3.108,0.722 -5.363,0.112 -4.259,-1.154 -8.702,-0.585 -12.511,1.6 -3.923,2.25 -6.747,6.037 -7.748,10.389 -0.953,4.141 -0.168,8.316 2.268,12.074 2.27,3.501 5.829,6.325 10.023,7.952 0.195,0.076 0.388,0.147 0.584,0.217 7.811,2.784 17.363,2.121 26.895,-1.867 6.009,-2.515 10.995,-5.927 14.639,-9.947 2.19,1.742 4.525,3.148 6.967,4.174 0.198,0.083 0.397,0.163 0.596,0.24 8.74,3.39 18.032,0.905 22.282,-6.037 0.361,-0.59 0.154,-1.365 -0.463,-1.731 z M 5.989,50.373 c 0.85,-3.696 3.248,-6.912 6.58,-8.824 3.208,-1.84 6.945,-2.321 10.521,-1.353 2.823,0.765 4.871,0.701 7.071,-0.219 2.199,-0.92 3.631,-2.313 4.941,-4.807 3.187,-6.065 10.757,-8.634 17.61,-5.977 0.628,0.244 1.248,0.533 1.84,0.86 6.637,3.655 9.112,11.854 5.884,19.495 C 57.58,56.309 51.089,62.091 42.16,65.827 33.231,69.563 24.358,70.21 17.174,67.65 17.001,67.588 16.835,67.522 16.66,67.458 8.892,64.446 4.404,57.26 5.989,50.373 Z"
     style="fill:#3d2a20;fill-rule:nonzero"
     id="path4" /><path
     d="M 42.16,65.827 C 51.089,62.091 57.579,56.31 60.436,49.548 63.664,41.907 61.189,33.708 54.552,30.053 53.959,29.727 53.34,29.437 52.711,29.194 45.859,26.536 38.289,29.105 35.102,35.17 c -1.31,2.494 -2.742,3.887 -4.941,4.807 -2.2,0.92 -4.248,0.984 -7.071,0.219 -3.576,-0.968 -7.313,-0.487 -10.521,1.354 -3.332,1.911 -5.73,5.127 -6.58,8.823 -1.585,6.887 2.903,14.073 10.67,17.086 0.176,0.064 0.342,0.129 0.515,0.191 7.184,2.56 16.057,1.913 24.986,-1.823 z m 1.35,-34.541 c 2.673,-0.883 5.62,-0.798 8.297,0.24 0.669,0.259 1.009,0.992 0.759,1.636 -0.25,0.644 -0.995,0.955 -1.664,0.696 -2.099,-0.814 -4.409,-0.881 -6.504,-0.19 -0.301,0.1 -0.617,0.083 -0.895,-0.025 -0.342,-0.132 -0.628,-0.402 -0.763,-0.765 -0.246,-0.658 0.099,-1.371 0.77,-1.592 z M 21.821,45.038 c -0.046,-0.013 -0.092,-0.028 -0.136,-0.045 -0.61,-0.236 -0.963,-0.882 -0.8,-1.505 0.175,-0.668 0.878,-1.058 1.57,-0.871 3.358,0.91 6.066,0.809 8.78,-0.326 2.713,-1.136 4.618,-2.965 6.177,-5.932 0.321,-0.612 1.098,-0.84 1.737,-0.513 0.637,0.328 0.894,1.091 0.573,1.702 -1.842,3.505 -4.128,5.681 -7.413,7.056 -3.286,1.375 -6.52,1.509 -10.488,0.434 z"
     style="fill:#a3e175;fill-rule:nonzero"
     id="path5" /><path
     d="m 39.722,37.548 c 0.321,-0.611 0.064,-1.373 -0.573,-1.702 -0.639,-0.326 -1.416,-0.098 -1.737,0.513 -1.559,2.967 -3.464,4.796 -6.177,5.932 -2.714,1.135 -5.421,1.236 -8.779,0.326 -0.693,-0.187 -1.396,0.203 -1.571,0.871 -0.164,0.624 0.19,1.269 0.8,1.506 0.044,0.017 0.09,0.032 0.137,0.044 3.967,1.075 7.201,0.941 10.487,-0.434 3.285,-1.374 5.571,-3.551 7.413,-7.056 z"
     style="fill:#ffffff;fill-rule:nonzero"
     id="path6" /><path
     d="m 43.503,33.643 c 0.278,0.108 0.594,0.125 0.895,0.025 2.095,-0.692 4.405,-0.624 6.504,0.19 0.67,0.259 1.414,-0.052 1.664,-0.696 0.25,-0.644 -0.09,-1.377 -0.759,-1.636 -2.677,-1.038 -5.623,-1.124 -8.297,-0.241 -0.671,0.222 -1.016,0.935 -0.77,1.593 0.135,0.363 0.421,0.633 0.763,0.765 z"
     style="fill:#ffffff;fill-rule:nonzero"
     id="path7" /></g>
    </g>
<g
   inkscape:groupmode="layer"
   id="layer1"
   inkscape:label="Layer 1"
   style="display:inline"><g
     style="fill:none"
     id="g8"
     transform="matrix(2.8553843,0,0,2.8553843,27.036591,23.376461)"><path
       d="m 10,17 c 3.866,0 7,-3.134 7,-7 0,-3.86599 -3.134,-7 -7,-7 -3.86599,0 -7,3.13401 -7,7 0,3.866 3.13401,7 7,7 z"
       stroke="#000000"
       stroke-width="1.5"
       stroke-linecap="round"
       stroke-linejoin="round"
       id="path1-2"
       style="fill:#ffffff;fill-opacity:0.582915" /><path
       d="m 20.9992,21 -6.05,-6.05"
       stroke="#000000"
       stroke-width="1.5"
       stroke-linecap="round"
       stroke-linejoin="round"
       id="path2-5" /></g></g></svg>
